<svg t="1566378354305" class="icon" viewBox="0 0 1024 1024" version="1.1" xmlns="http://www.w3.org/2000/svg" p-id="3778" width="200" height="200"><path d="M512 921.6C285.77792 921.6 102.4 738.22208 102.4 512S285.77792 102.4 512 102.4s409.6 183.37792 409.6 409.6-183.37792 409.6-409.6 409.6z m0-81.92c180.98176 0 327.68-146.69824 327.68-327.68S692.98176 184.32 512 184.32 184.32 331.01824 184.32 512s146.69824 327.68 327.68 327.68z" fill="#000000" p-id="3779"></path><path d="M544.21504 622.592a40.96 40.96 0 0 1-59.71968 1.90464l-144.81408-144.81408a40.96 40.96 0 1 1 57.91744-57.93792l115.79392 115.79392 115.95776-115.93728a40.96 40.96 0 0 1 57.91744 57.91744L544.21504 622.592z" fill="#000000" p-id="3780"></path></svg>