<svg t="1566378776760" class="icon" viewBox="0 0 1024 1024" version="1.1" xmlns="http://www.w3.org/2000/svg" p-id="4580" width="200" height="200"><path d="M49.7 442.9c18.1 13.6 43.7 10 57.4-8.1l186.9-248c13.6-18.1 10-43.7-8.1-57.4-18.1-13.6-43.7-10-57.4 8.1l-186.9 248c-13.5 18.1-9.9 43.8 8.1 57.4z" fill="#242424" p-id="4581"></path><path d="M541.2 927.1c16.8-15.2 18-41.1 2.8-57.8L104.3 384.1c-15.2-16.8-41.1-18-57.8-2.8-16.8 15.2-18 41.1-2.8 57.8l439.8 485.2c15.1 16.7 41 18 57.7 2.8zM975.9 441.8c-18.1 13.6-43.7 10-57.4-8.1l-186.9-248c-13.6-18.1-10-43.7 8.1-57.4 18.1-13.6 43.7-10 57.4 8.1l186.9 248c13.6 18.1 10 43.8-8.1 57.4z" fill="#242424" p-id="4582"></path><path d="M484.4 926c-16.8-15.2-18-41.1-2.8-57.8L921.4 383c15.2-16.8 41.1-18 57.8-2.8 16.8 15.2 18 41.1 2.8 57.8L542.3 923.2c-15.2 16.7-41.1 18-57.9 2.8zM547.2 712.6c16.8-15.2 18-41.1 2.8-57.8L342.7 426c-15.2-16.8-41.1-18-57.8-2.8-16.8 15.2-18 41.1-2.8 57.8l207.4 228.8c15.1 16.7 41 18 57.7 2.8z" fill="#242424" p-id="4583"></path><path d="M492.2 712.6c-16.8-15.2-18-41.1-2.8-57.8L696.7 426c15.2-16.8 41.1-18 57.8-2.8 16.8 15.2 18 41.1 2.8 57.8L550 709.8c-15.2 16.7-41.1 18-57.8 2.8zM805 161.1c0-22.6-18.3-41-41-41H261.6c-22.6 0-41 18.3-41 41 0 22.6 18.3 41 41 41H764c22.7 0 41-18.4 41-41z" fill="#242424" p-id="4584"></path></svg>